<svg width="31" height="38" viewBox="0 0 31 38" fill="none" xmlns="http://www.w3.org/2000/svg">
<g clip-path="url(#clip0_260_110)">
<path d="M25.8833 20.1887C25.8401 15.3836 29.8164 13.0767 29.9963 12.9642C27.7587 9.6978 24.2765 9.25031 23.0342 9.19767C20.0724 8.89854 17.252 10.9374 15.7507 10.9374C14.2495 10.9374 11.928 9.24075 9.47216 9.28861C6.23934 9.33647 3.26313 11.1623 1.59875 14.0483C-1.75638 19.8561 0.742581 28.4637 4.00898 33.1779C5.6086 35.4824 7.5128 38.0787 10.0166 37.983C12.4292 37.8873 13.3405 36.4276 16.252 36.4276C19.1634 36.4276 19.9836 37.983 22.533 37.9376C25.1255 37.8873 26.7706 35.5828 28.3583 33.2712C30.1905 30.5958 30.9484 28.0066 30.9915 27.8702C30.934 27.8463 25.9361 25.9343 25.8833 20.1887Z" fill="white"/>
<path d="M21.094 6.07894C22.4226 4.47324 23.3195 2.24054 23.0724 0.0151367C21.1585 0.0917955 18.8419 1.28824 17.4677 2.89394C16.2375 4.31305 15.1583 6.58633 15.4507 8.76642C17.5852 8.93154 19.7651 7.68228 21.094 6.07894Z" fill="white"/>
</g>
<defs>
<clipPath id="clip0_260_110">
<rect width="31" height="38" fill="white"/>
</clipPath>
</defs>
</svg>
