<svg width="26" height="26" viewBox="0 0 26 26" fill="none" xmlns="http://www.w3.org/2000/svg">
<path d="M13 16.8C15.8995 16.8 18.25 14.3823 18.25 11.4C18.25 8.41766 15.8995 6 13 6C10.1005 6 7.75 8.41766 7.75 11.4C7.75 14.3823 10.1005 16.8 13 16.8ZM13 16.8C6 16.8 5.93853 20.4146 5.93853 24.391M13 16.8C20 16.9565 20.0615 20.4146 20.0615 24.391M20.0615 24.391C18.5913 25 16.7275 25 13 25C9.27247 25 7.4087 25 5.93853 24.391M20.0615 24.391C22.0217 23.5791 23.5791 22.0217 24.391 20.0615C25 18.5913 25 16.7275 25 13C25 9.27247 25 7.4087 24.391 5.93853C23.5791 3.97831 22.0217 2.42092 20.0615 1.60896C18.5913 1 16.7275 1 13 1C9.27247 1 7.4087 1 5.93853 1.60896C3.97831 2.42092 2.42092 3.97831 1.60896 5.93853C1 7.4087 1 9.27247 1 13C1 16.7275 1 18.5913 1.60896 20.0615C2.42092 22.0217 3.97831 23.5791 5.93853 24.391" stroke="black" stroke-width="2" stroke-linecap="round"/>
</svg>
